<mxfile host="app.diagrams.net" modified="2023-03-24T10:00:20.500Z" agent="Mozilla/5.0 (Macintosh; Intel Mac OS X 10_15_7) AppleWebKit/537.36 (KHTML, like Gecko) Chrome/111.0.0.0 Safari/537.36" etag="8lpqc_Hr1KFsMKsGy18r" version="21.1.0" type="google">
  <diagram name="Страница 1" id="3WLMW3vRSMGDqEAw5Z8q">
    <mxGraphModel grid="1" page="0" gridSize="10" guides="1" tooltips="1" connect="1" arrows="1" fold="1" pageScale="1" pageWidth="827" pageHeight="1169" math="0" shadow="0">
      <root>
        <mxCell id="0" />
        <mxCell id="1" parent="0" />
        <mxCell id="d2HzqJqJbPeoVDifWbCD-14" style="edgeStyle=none;curved=1;rounded=0;orthogonalLoop=1;jettySize=auto;html=1;entryX=0.5;entryY=0;entryDx=0;entryDy=0;fontSize=12;startSize=8;endSize=8;" edge="1" parent="1" source="d2HzqJqJbPeoVDifWbCD-1" target="d2HzqJqJbPeoVDifWbCD-13">
          <mxGeometry relative="1" as="geometry" />
        </mxCell>
        <mxCell id="d2HzqJqJbPeoVDifWbCD-1" value="Начало" style="rounded=1;whiteSpace=wrap;html=1;fontSize=16;arcSize=50;" vertex="1" parent="1">
          <mxGeometry x="120" y="-20" width="200" height="20" as="geometry" />
        </mxCell>
        <mxCell id="d2HzqJqJbPeoVDifWbCD-16" style="edgeStyle=none;curved=1;rounded=0;orthogonalLoop=1;jettySize=auto;html=1;fontSize=12;startSize=8;endSize=8;" edge="1" parent="1" source="d2HzqJqJbPeoVDifWbCD-3" target="d2HzqJqJbPeoVDifWbCD-4">
          <mxGeometry relative="1" as="geometry" />
        </mxCell>
        <mxCell id="d2HzqJqJbPeoVDifWbCD-24" style="edgeStyle=orthogonalEdgeStyle;rounded=0;orthogonalLoop=1;jettySize=auto;html=1;fontSize=12;startSize=8;endSize=8;exitX=1;exitY=0.5;exitDx=0;exitDy=0;" edge="1" parent="1" source="d2HzqJqJbPeoVDifWbCD-3">
          <mxGeometry relative="1" as="geometry">
            <mxPoint x="220" y="720" as="targetPoint" />
            <Array as="points">
              <mxPoint x="400" y="140" />
              <mxPoint x="400" y="680" />
              <mxPoint x="220" y="680" />
            </Array>
          </mxGeometry>
        </mxCell>
        <mxCell id="d2HzqJqJbPeoVDifWbCD-3" value="Цикл i (0,5)" style="shape=hexagon;perimeter=hexagonPerimeter2;whiteSpace=wrap;html=1;fixedSize=1;fontSize=16;" vertex="1" parent="1">
          <mxGeometry x="120" y="120" width="200" height="40" as="geometry" />
        </mxCell>
        <mxCell id="d2HzqJqJbPeoVDifWbCD-17" style="edgeStyle=none;curved=1;rounded=0;orthogonalLoop=1;jettySize=auto;html=1;entryX=0.5;entryY=0;entryDx=0;entryDy=0;fontSize=12;startSize=8;endSize=8;" edge="1" parent="1" source="d2HzqJqJbPeoVDifWbCD-4" target="d2HzqJqJbPeoVDifWbCD-5">
          <mxGeometry relative="1" as="geometry" />
        </mxCell>
        <mxCell id="d2HzqJqJbPeoVDifWbCD-4" value="stroka = []" style="rounded=0;whiteSpace=wrap;html=1;fontSize=16;" vertex="1" parent="1">
          <mxGeometry x="120" y="200" width="200" height="40" as="geometry" />
        </mxCell>
        <mxCell id="d2HzqJqJbPeoVDifWbCD-18" style="edgeStyle=none;curved=1;rounded=0;orthogonalLoop=1;jettySize=auto;html=1;entryX=0.5;entryY=0;entryDx=0;entryDy=0;fontSize=12;startSize=8;endSize=8;" edge="1" parent="1" source="d2HzqJqJbPeoVDifWbCD-5" target="d2HzqJqJbPeoVDifWbCD-6">
          <mxGeometry relative="1" as="geometry" />
        </mxCell>
        <mxCell id="d2HzqJqJbPeoVDifWbCD-22" style="edgeStyle=orthogonalEdgeStyle;rounded=0;orthogonalLoop=1;jettySize=auto;html=1;entryX=0.5;entryY=0;entryDx=0;entryDy=0;fontSize=12;startSize=8;endSize=8;exitX=1;exitY=0.5;exitDx=0;exitDy=0;" edge="1" parent="1" source="d2HzqJqJbPeoVDifWbCD-5" target="d2HzqJqJbPeoVDifWbCD-21">
          <mxGeometry relative="1" as="geometry">
            <Array as="points">
              <mxPoint x="360" y="300" />
              <mxPoint x="360" y="520" />
              <mxPoint x="220" y="520" />
            </Array>
          </mxGeometry>
        </mxCell>
        <mxCell id="d2HzqJqJbPeoVDifWbCD-5" value="Цикл j (0,5)" style="shape=hexagon;perimeter=hexagonPerimeter2;whiteSpace=wrap;html=1;fixedSize=1;fontSize=16;" vertex="1" parent="1">
          <mxGeometry x="120" y="280" width="200" height="40" as="geometry" />
        </mxCell>
        <mxCell id="d2HzqJqJbPeoVDifWbCD-19" style="edgeStyle=none;curved=1;rounded=0;orthogonalLoop=1;jettySize=auto;html=1;entryX=0.5;entryY=0;entryDx=0;entryDy=0;fontSize=12;startSize=8;endSize=8;" edge="1" parent="1" source="d2HzqJqJbPeoVDifWbCD-6" target="d2HzqJqJbPeoVDifWbCD-8">
          <mxGeometry relative="1" as="geometry" />
        </mxCell>
        <mxCell id="d2HzqJqJbPeoVDifWbCD-6" value="Ввод row элемента массива stroka" style="shape=parallelogram;perimeter=parallelogramPerimeter;whiteSpace=wrap;html=1;fixedSize=1;fontSize=16;" vertex="1" parent="1">
          <mxGeometry x="120" y="360" width="200" height="40" as="geometry" />
        </mxCell>
        <mxCell id="d2HzqJqJbPeoVDifWbCD-9" style="edgeStyle=orthogonalEdgeStyle;rounded=0;orthogonalLoop=1;jettySize=auto;html=1;entryX=0;entryY=0.5;entryDx=0;entryDy=0;fontSize=12;startSize=8;endSize=8;exitX=0.5;exitY=1;exitDx=0;exitDy=0;strokeColor=none;" edge="1" parent="1" source="d2HzqJqJbPeoVDifWbCD-8" target="d2HzqJqJbPeoVDifWbCD-5">
          <mxGeometry relative="1" as="geometry">
            <Array as="points">
              <mxPoint x="220" y="520" />
              <mxPoint x="80" y="520" />
              <mxPoint x="80" y="300" />
            </Array>
          </mxGeometry>
        </mxCell>
        <mxCell id="d2HzqJqJbPeoVDifWbCD-8" value="Добавление row в stroka" style="rounded=0;whiteSpace=wrap;html=1;fontSize=16;" vertex="1" parent="1">
          <mxGeometry x="120" y="440" width="200" height="40" as="geometry" />
        </mxCell>
        <mxCell id="d2HzqJqJbPeoVDifWbCD-15" style="edgeStyle=none;curved=1;rounded=0;orthogonalLoop=1;jettySize=auto;html=1;entryX=0.5;entryY=0;entryDx=0;entryDy=0;fontSize=12;startSize=8;endSize=8;" edge="1" parent="1" source="d2HzqJqJbPeoVDifWbCD-13" target="d2HzqJqJbPeoVDifWbCD-3">
          <mxGeometry relative="1" as="geometry" />
        </mxCell>
        <mxCell id="d2HzqJqJbPeoVDifWbCD-13" value="matrix = []" style="rounded=0;whiteSpace=wrap;html=1;fontSize=16;" vertex="1" parent="1">
          <mxGeometry x="120" y="40" width="200" height="40" as="geometry" />
        </mxCell>
        <mxCell id="d2HzqJqJbPeoVDifWbCD-23" style="edgeStyle=orthogonalEdgeStyle;rounded=0;orthogonalLoop=1;jettySize=auto;html=1;entryX=0;entryY=0.5;entryDx=0;entryDy=0;fontSize=12;startSize=8;endSize=8;exitX=0.5;exitY=1;exitDx=0;exitDy=0;" edge="1" parent="1" source="d2HzqJqJbPeoVDifWbCD-21" target="d2HzqJqJbPeoVDifWbCD-3">
          <mxGeometry relative="1" as="geometry">
            <Array as="points">
              <mxPoint x="220" y="640" />
              <mxPoint x="80" y="640" />
              <mxPoint x="80" y="140" />
            </Array>
          </mxGeometry>
        </mxCell>
        <mxCell id="d2HzqJqJbPeoVDifWbCD-21" value="Добавление row в stroka" style="rounded=0;whiteSpace=wrap;html=1;fontSize=16;" vertex="1" parent="1">
          <mxGeometry x="120" y="560" width="200" height="40" as="geometry" />
        </mxCell>
        <mxCell id="d2HzqJqJbPeoVDifWbCD-25" value="" style="rounded=0;whiteSpace=wrap;html=1;fontSize=16;" vertex="1" parent="1">
          <mxGeometry x="120" y="720" width="200" height="40" as="geometry" />
        </mxCell>
      </root>
    </mxGraphModel>
  </diagram>
</mxfile>
